<svg clip-rule="evenodd" fill-rule="evenodd" image-rendering="optimizeQuality" shape-rendering="geometricPrecision" text-rendering="geometricPrecision" version="1.1" viewBox="0 0 67761 75881" xml:space="preserve" xmlns="http://www.w3.org/2000/svg">
	<path fill="#fff" d="m59038 37103l-25228 32613c-1290 1667-982 4079 686 5368 1667 1290 4078 982 5368-685l27087-35017c1102-1425 1077-3364-61-4760l-27088-33216c-1332-1634-3750-1879-5384-548-1633 1333-1878 3751-547 5384l25167 30861zm-33013 0l-25228 32613c-1289 1667-981 4079 686 5368 1667 1290 4078 982 5368-685l27087-35017c1102-1425 1077-3364-61-4760l-27087-33216c-1333-1634-3751-1879-5384-548-1634 1333-1879 3751-548 5384l25167 30861z"/>
</svg>