<svg clip-rule="evenodd" fill-rule="evenodd" image-rendering="optimizeQuality" shape-rendering="geometricPrecision" text-rendering="geometricPrecision" version="1.1" viewBox="0 0 67760 75881" xml:space="preserve" xmlns="http://www.w3.org/2000/svg">
	<path fill="#fff" d="m8723 37103l25228 32612c1289 1668 981 4079-686 5368-1667 1290-4078 982-5368-685l-27087-35016c-1102-1425-1077-3364 61-4760l27087-33216c1333-1634 3751-1879 5384-548 1633 1333 1879 3751 547 5384l-25166 30861zm33013 0l25227 32612c1289 1668 981 4079-686 5368-1667 1290-4078 982-5368-685l-27087-35016c-1102-1425-1077-3364 62-4760l27087-33216c1332-1634 3750-1879 5384-548 1633 1333 1878 3751 547 5384l-25166 30861z"/>
</svg>