<svg width="3508px" height="664px" clip-rule="evenodd" fill-rule="evenodd" image-rendering="optimizeQuality" shape-rendering="geometricPrecision" text-rendering="geometricPrecision" version="1.1" viewBox="0 0 6904889 1306326" xml:space="preserve" xmlns="http://www.w3.org/2000/svg">
	<path fill="#fff" d="M651110 0c-359782,1118 -651110,293111 -651110,653154 0,360749 292444,653172 653179,653172 360735,0 653173,-292423 653173,-653172 0,-360043 -291319,-652036 -651101,-653154l-4139 0 -2 0z"/>
	<path fill="#111" d="M653179 1235717c-321728,0 -582538,-260809 -582538,-582538 0,-321728 260810,-582538 582538,-582538 321729,0 582538,260810 582538,582538 0,321729 -260809,582538 -582538,582538z"/>
	<path fill="#fff" d="M6904889 302288l0 161976 -173101 0 0 546663 -179187 0 0 -546663 -174122 0 0 -161976 526410 0zm-902283 539578l266248 0 0 169061 -451503 0 0 -708658 442392 0 0 160963 -257137 -2 0 101237 236892 2 0 161977 -236892 0 0 115423 0 -3zm-548236 4043l-142738 0 0 -117425 141724 0c12145,0 21266,3041 30377,7091 17204,12141 26315,34418 25306,55679 -3034,28349 -19231,54655 -54669,54655l0 3 0 -3zm-142738 -385695l114395 0c37454,0 55679,31379 54670,62763 -1014,28349 -19243,55678 -54670,55678l-114395 0 0 -118438 0 -3zm292574 179179c35415,-28343 58705,-78962 58705,-122493 0,-131607 -92130,-217649 -223730,-217649l-312814 3 0 707607 341164 0c145767,0 224744,-94153 224744,-215628 0,-64790 -30377,-122486 -88069,-151857l0 19 0 -2zm-1028557 26315l-130593 0 0 -203492 130593 0c50622,0 76938,49608 76938,100223 0,51629 -28343,103269 -76938,103269l0 0zm0 -364455c-105286,-1014 -207530,0 -312819,0l0 708658 185263 2 0 -183235 127559 0c168054,0 254095,-129579 254095,-259157 3041,-133627 -84021,-266249 -254095,-266249l0 -21 -3 2zm-512022 -993l65797 0 0 710637 -185256 -3 0 -326987 -150836 157929 -21258 -2 -150843 -157929 0 326987 -185258 2 0 -710636 65803 2 281436 306745 280415 -306745zm-851919 544636l90099 0 0 166031 -365450 0 0 -166031 90091 0 0 -376582 -81992 0 0 -166026 349246 0 0 166026 -81992 0 0 376582 -2 0zm-648202 -1007l256123 0 0 166027 -441385 0 0 -708658 185262 -3 0 542634zm-667051 5075c-91110,0 -178172,-65810 -178172,-192356 0,-129579 88076,-192346 180194,-192346 88083,0 176152,65803 176152,192346 0,126544 -90099,192356 -178172,192356l0 0 -2 0zm2022 -560844c-184244,0 -365450,123502 -365450,368491 0,245998 175131,367472 362416,367472 214612,0 364441,-150831 364441,-367472 0,-244989 -180192,-368491 -361407,-368491l0 0zm2882568 648913c0,-56697 44545,-93144 100224,-93144 56685,0 100230,36447 100230,93144 0,56685 -43545,92112 -100230,92112 -55679,0 -100224,-35427 -100224,-92112z"/>
	<path fill="#fff" d="m6.272e5 1.0976e6c-22095 10752-49008 2e4 -84030 24215l-6921 844 36314 30140 1481-381c26104-6642 49943-22403 71742-39435-4306-3517-8547-7026-12687-10490-1983-1646-3939-3266-5899-4891l3-2h-3zm-1.0938e5 -82566c-14972-51996-51419-93618-1.0967e5 -1.153e5 1416 60844 17209 1.0992e5 44273 1.4176e5 20238-16077 42373-24914 65397-26462l-3 5zm-1.4492e5 -48197c14509 22377 35235 42417 52333 57315-6136-11383-11495-24004-15900-38133-9107-9671-17737-19940-25269-30395 20317-57250 14235-1.0771e5 -35032-1.5702e5 -32332 78990-18961 1.3623e5 23868 1.6824e5zm-27195-2839c2707 697 5438 1567 8170 2534-22221-21277-33878-49238-34834-82389-29930-38909-79622-73915-1.4399e5 -81624 49515 1.4502e5 86553 1.7818e5 1.7066e5 1.6148e5v2zm-26059-3.1021e5c-71723 80603-62518 1.379e5 -27178 1.8241e5 658 2034 1344 4036 2067 6017 9151 7688 17416 15906 24860 24392 151-1915 460-3910 676-5852-4884-7702-9571-16353-13528-25715 35584-30244 63327-1.0478e5 13101-1.8126e5l2 5zm-1.1679e5 1.3385e5c5305 4689 11066 8756 17036 12719 18058 5987 34722 14057 49778 23621-4680-8183-8360-16453-11008-24860-11594-20849-20889-44051-23005-66184-1218 11850-3608 23951-6951 36275 3483 10252 8151 20508 13503 30409-3306-1988-6524-3648-9697-5266-6333-3241-12780-6551-20027-12726 19929-58601 21475-1.2721e5 -44210-2.0249e5 -44847 99656-9434 1.9595e5 34578 2.085e5l3-2zm1.0846e5 -2.5182e5c-50698 35933-79155 67463-91137 1.0062e5 13179 29536 18334 59859 15825 91712 54644-43631 63909-72611 75310-1.9233e5l2-2zm-84479 19354c-3371 7512-6549 14610-9218 21912-4603 12641-8109 23919-10843 33974 4805 7886 8992 15811 12635 23797 2555-13100 6215-28875 11404-46593 6549-14695 15846-25064 21647-33873 4912-7451 9888-14603 17083-21956 56262 51 1.073e5 -49727 1.1494e5 -1.2738e5 -71769 13464-1.3048e5 53131-1.2119e5 1.2085e5 -3667 4575-7038 9420-10455 14351-3746 5417-7573 10908-11929 16230 9692-29658 18545-58324 17855-84505l104-86c2304-5089 4964-10059 8202-14825 8400-12404 19980-23424 34176-32872 16044-27375 23189-60426 31911-1.141e5 -1.0199e5 38159-1.119e5 1.1236e5 -85681 1.6622e5 -606 34025-11092 57552-20640 78851v13zm1.0198e5 -1.6497e5c-2474 8223-5280 15781-8426 22983 1121-553 2283-1064 3422-1599 12497-10653 26316-23660 38468-37152 60182-14923 76995-86229 63216-1.5727e5 -67220 50385-97020 1.0046e5 -74573 1.5316e5 -7228 7228-14793 14035-22107 19889v-2-7zm2.5899e5 -1.9803e5c-70372 3140-1.1939e5 22521-1.4626e5 56224 988 16063 316 31396-1974 45631 67633-2871 1.174e5 -30312 1.4824e5 -1.0185e5l-2-2zm-1.1479e5 1.4038e5l12450 2488c36861-3702 69800-22726 96587-60503-10632-3252-21080-5926-31239-7979-28771 25346-65908 37947-1.136e5 39490-1894 8033-4363 15624-7374 22712 12650-481 26850 521 43175 3792zm-2350 11757c-17416-3476-33058-4496-46935-3213-1737 3041-3543 6003-5510 8783-14235 20073-33787 32516-58059 37238 43477 11324 79311 2311 1.105e5 -42808zm-2.6953e5 2.5356e5c-32306-37587-30528-1.0165e5 1772-1.6928e5 16202 22212 27475 42241 34710 60693-2725 25795-11310 45091-19243 62793-3417 7616-6649 14814-9381 22319-3059 8395-5649 16209-7853 23472l-5 2v3zm5.171e5 4.481e5c-14196 3943-27776 12852-43701 23479-4273 2836-8723 5793-13352 8788 5043 3047 10369 6098 16012 9081 11698-9665 23074-18653 34201-25609 35801 39981 1.0085e5 46230 1.6494e5 16946-45461-59694-1.0372e5 -66645-1.581e5 -32681l-2-2v-2zm73963-31503c19034 1653 37454 8231 54598 19581 12278-17316 24467-31505 37749-41483 11903-26097 20489-57185 25901-91561-61425 18690-1.0097e5 59991-1.1825e5 1.1347e5v2l2-5zm63121 28257c48002 38421 92962 32930 1.4182e5 -32213-73783-42734-1.0482e5 -20580-1.4182e5 32213zm1.0191e5 -87913c-4273 658-8328 1765-12145 3213 1158-25704 14937-54802 38058-81366 1639-24702-3008-53393-15214-85972-53709 50634-59061 1.0401e5 -36170 1.662e5 -5557 7432-11720 14649-18132 21481 7591-1876 15656-2520 24327-1850 8735-6570 17783-11046 26822-13398 77812 14497 1.1262e5 -17856 1.5894e5 -1.538e5 -95410 18322-1.6122e5 92591-1.6649e5 1.455e5l-3 3 5 2zm35340-88234c5327-5412 11002-10685 17067-15728 3706-8539 6861-17603 9179-27038 26801-41385 15037-95127-29284-1.6647e5 -32844 74242-18453 1.4434e5 13858 1.72e5 -3292 8507-7242 16453-11454 23707 395 4608 606 9111 637 13528l-3-2v2zm1.4731e5 -2.8878e5c-65692 75277-64144 1.4388e5 -44217 2.0249e5 -7249 6175-13694 9486-20020 12713-1283 658-2587 1329-3892 2008 3476-7098 6624-14398 9151-21837-3285-11181-5668-22135-7228-32900-4122 37210-26071 74106-44761 96032 10653-7254 22121-13833 34236-19566 6724-5582 13715-10258 20601-14747 7577-4964 14972-9830 21612-15709 43985-12627 79334-1.0888e5 34518-2.0849e5v5zm-1.4303e5 -37766c11436 1.2003e5 20731 1.4885e5 75766 1.9269e5 -3583-33076 1164-64466 14286-94994-12580-32095-40843-62814-90052-97692zm64599 38809c9869 10423 18060 20857 24609 31449 47276-34029 49885-1.0624e5 13205-1.8303e5 -46506 63769-52702 1.0961e5 -37816 1.5158e5h2zm-9248-1.0589e5c-177 4517 21 8956 525 13345 4122-11166 9672-22944 16816-35373 12692-50187-7051-1.0944e5 -94529-1.4217e5 14372 88443 24425 1.2093e5 77186 1.642e5h2zm-14714 58141c1987 2264 3627 4456 5140 6623 98-8783 1111-18020 3185-27729-91-11605-2283-22286-6293-32041-18218-15570-31298-30323-41239-46500-20738-13280-46679-22488-74598-27724 7583 77125 57987 1.2675e5 1.138e5 1.2737e5v-2zm-91587-1.5799e5c13694 15214 29510 29819 43150 41115-3573-7814-6623-16148-9369-25090-7412-5912-15095-12812-22435-20140 22449-52707-7349-1.0277e5 -74559-1.5316e5 -13787 71043 3029 1.4236e5 63216 1.5727e5v2h-3zm-1.7119e5 -1.2424e5c32904-2434 60679 2738 81003 15511 3943 2474 7433 5327 10743 8323-560-10434-316-21316 686-32508-24695-31042-70127-47377-1.352e5 -47279 11929 24504 26215 42747 42766 55953h5zm1.0274e5 76384c-3990-9902-6938-20738-8814-32332-25767-37526-86618-40774-1.5546e5 -19718 42326 59687 1.0001e5 72525 1.6427e5 52050h-5 3zm-13450 9136c6354-21 12331 317 17986 935 2396 4675 5042 9097 7965 13219 13833 19527 32706 31844 56073 36861-36803 2562-64164-9985-82026-51017l2 2zm-99026 7.8877e5c-65796-7921-1.0291e5 -31891-1.3273e5 -51157-12633-8163-24285-15602-36465-20863-56021-38231-1.1686e5 -32991-1.6395e5 28849 63550 29040 1.2807e5 23195 1.6406e5 -15874 12626 8302 25729 18836 39265 29784 29324 23713 62555 50596 98942 59858l1481 377 36315-30147-6922-827zm-3.2724e5 -71828c-1081-1178-6400-5477-11101-9269-14588-11796-39718-37547-54388-55736l-3211-3983c-18829-1520-40648 3213-66996 16084 26039 62176 89755 80647 1.3719e5 54544l-1495-1640h-3zm-2.366e5 -4.5345e5z"/>
</svg>